HIERARCHY
ROOT Hips
{
	OFFSET 0.000000 0.000000 0.000000
	CHANNELS 6 Xposition Yposition Zposition Xrotation Yrotation Zrotation
	JOINT LeftUpLeg_virtual
	{
		OFFSET 0.000000 0.000000 0.000000
		CHANNELS 3 Xrotation Yrotation Zrotation
		JOINT LeftUpLeg
		{
			OFFSET 11.394100 -6.187798 -0.413800
			CHANNELS 3 Xrotation Yrotation Zrotation
			JOINT LeftLeg
			{
				OFFSET 0.430247 -32.302673 3.732800
				CHANNELS 3 Xrotation Yrotation Zrotation
				JOINT LeftFoot
				{
					OFFSET -0.430247 -48.264931 -6.423300
					CHANNELS 3 Xrotation Yrotation Zrotation
					JOINT LeftToeBase
					{
						OFFSET 4.230900 -16.068199 23.438400
						CHANNELS 3 Xrotation Yrotation Zrotation
						JOINT LeftToe_End
						{
							OFFSET 4.510700 0.695400 19.974600
							CHANNELS 3 Xrotation Yrotation Zrotation
							End Site
							{
								OFFSET 0 0 0
							}
						}
					}
				}
			}
		}
	}
	JOINT RightUpLeg_virtual
	{
		OFFSET 0.000000 0.000000 0.000000
		CHANNELS 3 Xrotation Yrotation Zrotation
		JOINT RightUpLeg
		{
			OFFSET -11.333700 -6.187798 -0.413800
			CHANNELS 3 Xrotation Yrotation Zrotation
			JOINT RightLeg
			{
				OFFSET -0.430392 -32.302628 3.733000
				CHANNELS 3 Xrotation Yrotation Zrotation
				JOINT RightFoot
				{
					OFFSET 0.430392 -48.264973 -6.423500
					CHANNELS 3 Xrotation Yrotation Zrotation
					JOINT RightToeBase
					{
						OFFSET -4.230900 -16.068199 23.438400
						CHANNELS 3 Xrotation Yrotation Zrotation
						JOINT RightToe_End
						{
							OFFSET -4.510700 0.695400 19.974600
							CHANNELS 3 Xrotation Yrotation Zrotation
							End Site
							{
								OFFSET 0 0 0
							}
						}
					}
				}
			}
		}
	}
	JOINT Spine_virtual
	{
		OFFSET 0.000000 0.000000 0.000000
		CHANNELS 3 Xrotation Yrotation Zrotation
		JOINT Spine
		{
			OFFSET -0.002400 12.777504 0.315300
			CHANNELS 3 Xrotation Yrotation Zrotation
			JOINT Spine1
			{
				OFFSET -0.002067 5.816869 0.032633
				CHANNELS 3 Xrotation Yrotation Zrotation
				JOINT Spine1_split
				{
					OFFSET -0.002067 5.816869 0.032633
					CHANNELS 3 Xrotation Yrotation Zrotation
					JOINT Spine2
					{
						OFFSET -0.002067 5.816869 0.032633
						CHANNELS 3 Xrotation Yrotation Zrotation
						JOINT Neck_virtual
						{
							OFFSET 0.000000 0.000000 0.000000
							CHANNELS 3 Xrotation Yrotation Zrotation
							JOINT Neck
							{
								OFFSET -0.003700 21.199493 -0.826900
								CHANNELS 3 Xrotation Yrotation Zrotation
								JOINT Head
								{
									OFFSET 0.000000 20.442200 4.834800
									CHANNELS 3 Xrotation Yrotation Zrotation
									JOINT HeadTop_End
									{
										OFFSET 0.000000 34.668396 4.968400
										CHANNELS 3 Xrotation Yrotation Zrotation
										End Site
										{
											OFFSET 0 0 0
										}
									}
								}
							}
						}
						JOINT LeftShoulder_virtual
						{
							OFFSET 0.000000 0.000000 0.000000
							CHANNELS 3 Xrotation Yrotation Zrotation
							JOINT LeftShoulder
							{
								OFFSET 3.288150 8.794197 -1.372250
								CHANNELS 3 Xrotation Yrotation Zrotation
								JOINT LeftShoulder_split
								{
									OFFSET 3.288150 8.794197 -1.372250
									CHANNELS 3 Xrotation Yrotation Zrotation
									JOINT LeftArm
									{
										OFFSET 11.953299 -2.279007 -0.146200
										CHANNELS 3 Xrotation Yrotation Zrotation
										JOINT LeftForeArm
										{
											OFFSET 18.448900 0.000000 0.000000
											CHANNELS 3 Xrotation Yrotation Zrotation
											JOINT LeftHand
											{
												OFFSET 29.527798 0.000000 0.000000
												CHANNELS 3 Xrotation Yrotation Zrotation
												End Site
												{
													OFFSET 0 0 0
												}
											}
										}
									}
								}
							}
						}
						JOINT RightShoulder_virtual
						{
							OFFSET 0.000000 0.000000 0.000000
							CHANNELS 3 Xrotation Yrotation Zrotation
							JOINT RightShoulder
							{
								OFFSET -3.249400 8.794197 -1.372250
								CHANNELS 3 Xrotation Yrotation Zrotation
								JOINT RightShoulder_split
								{
									OFFSET -3.249400 8.794197 -1.372250
									CHANNELS 3 Xrotation Yrotation Zrotation
									JOINT RightArm
									{
										OFFSET -11.953299 -2.279007 -0.146200
										CHANNELS 3 Xrotation Yrotation Zrotation
										JOINT RightForeArm
										{
											OFFSET -18.448900 0.000000 0.000000
											CHANNELS 3 Xrotation Yrotation Zrotation
											JOINT RightHand
											{
												OFFSET -29.527802 0.000000 0.000000
												CHANNELS 3 Xrotation Yrotation Zrotation
												End Site
												{
													OFFSET 0 0 0
												}
											}
										}
									}
								}
							}
						}
					}
				}
			}
		}
	}
}
MOTION
Frames: 5
Frame Time: 0.03333333
-7.964411 78.751106 -6.617146 0.000000 0.000000 0.000000 8.094793 8.262575 -21.961375 -81.594007 15.736792 14.674506 97.914136 0.095104 8.714465 29.976915 0.100906 20.785731 -1.079863 -4.880512 -5.590880 0.000000 0.000000 0.000000 3.019221 7.153469 -20.575813 -24.597844 -6.772045 -8.635483 50.210203 8.019573 0.549451 14.844335 16.620801 -8.787111 -48.357121 4.484018 -4.558033 0.000000 0.000000 0.000000 3.421364 12.013992 -20.737619 5.319268 5.825137 2.994127 2.573879 2.105729 1.867080 1.020567 2.323592 0.961072 0.000000 0.000000 0.000000 1.312394 1.072829 2.876579 -7.368107 3.578841 -3.122212 -16.914368 7.227825 4.243768 0.000000 0.000000 0.000000 2.393614 1.606327 1.748483 -1.069003 -5.701106 -4.133803 -1.975955 2.355813 -2.919228 59.870829 -16.050166 -42.597424 9.639904 -75.043644 9.954838 0.000000 0.000000 0.000000 3.904773 2.349430 2.359331 3.185287 -5.330624 9.237730 8.293748 3.744451 -7.131200 -17.001464 23.152330 54.485672 4.084197 76.741984 -3.727597 0.000000 0.000000 0.000000 
-8.196091 80.265976 7.882217 0.000000 0.000000 0.000000 4.740886 5.359237 -21.996568 -88.177619 14.977329 16.200386 76.635460 2.101300 5.264435 31.538153 0.718531 19.088910 0.714587 -4.723433 -5.190385 0.000000 0.000000 0.000000 3.133622 2.241063 -21.179592 -16.631558 -7.969521 -9.495076 45.137974 8.628762 0.511295 20.575735 17.146920 -2.539680 -49.901383 4.902542 -4.920934 0.000000 0.000000 0.000000 3.706526 8.575554 -21.396394 4.026800 7.255222 3.186081 2.573895 2.552046 1.586637 1.010385 4.463383 0.220642 0.000000 0.000000 0.000000 1.463096 1.594984 2.674775 -6.774848 2.904742 -2.909330 -17.903309 7.901566 4.966200 0.000000 0.000000 0.000000 2.212786 2.214356 1.867359 -0.947814 -3.583738 -3.305644 -1.557810 3.558309 -2.759485 62.994200 -14.028123 -41.309083 8.998422 -78.135752 8.495518 0.000000 0.000000 0.000000 2.894378 2.714958 2.059187 2.369372 -3.792522 8.033592 7.800205 4.163095 -7.395465 -24.859920 28.398301 58.895485 8.932731 88.152949 -9.515227 0.000000 0.000000 0.000000 
-7.594530 82.128860 25.522930 0.000000 0.000000 0.000000 2.983070 2.636220 -21.473591 -90.956270 11.320783 13.091840 51.964267 4.586976 3.528141 33.460622 1.674150 15.777804 3.717277 -4.571951 -5.360260 0.000000 0.000000 0.000000 4.970381 1.613930 -21.353586 -4.097271 -7.427931 -8.914568 38.168576 8.956422 -0.346174 24.103499 17.072350 3.755783 -47.780513 4.269900 -3.525753 0.000000 0.000000 0.000000 3.868859 6.273968 -21.189101 2.949751 9.787177 3.164945 2.614959 3.581000 1.232665 1.092072 4.364637 -0.172715 0.000000 0.000000 0.000000 1.591955 2.639161 2.241558 -5.908053 1.925160 -1.973049 -18.101567 9.139650 5.040570 0.000000 0.000000 0.000000 1.964172 3.402443 1.777522 -0.999738 -0.805659 -2.562884 -1.129788 3.070749 -1.715235 65.743918 -12.392458 -42.154179 8.844683 -82.415658 7.535272 0.000000 0.000000 0.000000 2.195908 3.683130 1.567718 1.583719 -1.926057 6.858177 7.896687 2.505300 -6.609729 -30.572818 33.779568 62.948294 179.529391 80.297528 178.992470 0.000000 0.000000 0.000000 
-6.070522 82.713623 43.437088 0.000000 0.000000 0.000000 2.405478 1.834857 -20.579553 -88.803702 7.063354 6.568287 33.632272 7.250639 3.550228 33.274271 3.737698 13.130721 6.588224 -4.428555 -5.569400 0.000000 0.000000 0.000000 7.902929 4.639162 -21.266139 7.131304 -5.873184 -7.714738 34.040693 7.745994 -1.895580 23.114583 13.471040 6.192173 -40.636692 3.256803 -1.418105 0.000000 0.000000 0.000000 3.051939 6.509469 -20.406515 2.596249 12.461109 2.742926 2.732746 4.662412 0.964599 1.358650 2.461292 0.215629 0.000000 0.000000 0.000000 1.554642 3.674074 1.776265 -4.893274 1.241419 -0.608031 -17.419653 10.908786 4.540613 0.000000 0.000000 0.000000 1.817676 4.572417 1.565057 -1.101834 1.645563 -2.270765 0.061484 1.831525 -0.742176 65.668683 -11.982153 -44.707215 8.237155 -85.984971 6.619382 0.000000 0.000000 0.000000 1.951873 4.656318 1.011037 0.858355 -0.369623 6.232207 8.656081 0.415136 -4.742844 -29.599950 36.970175 64.276212 179.023875 72.049214 178.903145 0.000000 0.000000 0.000000 
-3.747590 81.883949 61.323318 0.000000 0.000000 0.000000 2.247989 3.654269 -19.196127 -82.197447 3.486008 -0.985127 25.550744 9.730758 4.218087 28.212643 6.431949 12.747435 7.536327 -3.918704 -5.405383 0.000000 0.000000 0.000000 10.210773 9.527999 -20.997682 11.700390 -4.325761 -6.569678 38.299756 4.479846 -3.668378 18.838816 5.838857 3.364073 -29.787288 2.622794 0.489228 0.000000 0.000000 0.000000 2.076938 9.958487 -19.011022 2.989916 14.079866 1.956632 2.961347 5.296242 0.782256 0.688339 0.850402 0.675356 0.000000 0.000000 0.000000 1.318007 4.109606 1.402589 -3.854019 1.074696 0.589369 -15.965016 12.919646 3.711238 0.000000 0.000000 0.000000 1.785211 5.072461 1.234315 -1.159249 2.989396 -2.601799 1.840465 0.878429 -0.273275 61.227503 -12.927309 -47.825972 7.337851 -86.627856 6.043645 0.000000 0.000000 0.000000 2.078316 5.028270 0.549933 0.289308 0.489464 6.382991 9.435469 -0.155582 -2.457703 -20.228660 36.465014 62.257038 177.865024 68.778653 179.957262 0.000000 0.000000 0.000000 
